<?xml version="1.0" standalone="no"?><!DOCTYPE svg PUBLIC "-//W3C//DTD SVG 1.1//EN" "http://www.w3.org/Graphics/SVG/1.1/DTD/svg11.dtd"><svg t="1617075882713" class="icon" viewBox="0 0 1024 1024" version="1.1" xmlns="http://www.w3.org/2000/svg" p-id="3006" xmlns:xlink="http://www.w3.org/1999/xlink" width="128" height="128"><defs><style type="text/css"></style></defs><path d="M0 993.749333h836.309333v-127.061333H127.146667V157.397333h709.376V622.933333h-60.672l124.074666 124.117334L1024 622.890667h-60.458667V30.250667H0v963.498666z m688.981333-423.893333a129.194667 129.194667 0 0 0-70.528-67.413333 171.221333 171.221333 0 0 0-39.082666-10.837334 73.386667 73.386667 0 0 0 31.36-12.629333c10.282667-6.869333 19.413333-15.530667 27.605333-25.984 8.192-10.538667 14.72-22.826667 19.541333-36.821333 4.906667-14.08 7.296-29.269333 7.296-45.610667 0-27.648-5.376-50.602667-16.085333-68.992a121.941333 121.941333 0 0 0-44.074667-44.074667 196.864 196.864 0 0 0-65.536-23.338666 439.936 439.936 0 0 0-79.701333-6.912c-32.170667 0-58.965333 0.768-80.512 2.304-21.418667 1.578667-40.32 3.541333-56.704 6.186666v551.808c29.184 3.541333 55.168 6.016 78.250667 7.296 22.997333 1.28 46.165333 1.877333 69.717333 1.877334a537.6 537.6 0 0 0 87.765333-6.912 214.272 214.272 0 0 0 73.514667-25.258667c21.290667-12.288 38.101333-29.013333 50.645333-50.218667 12.544-21.248 18.816-48.426667 18.816-81.664 0-24.533333-4.096-45.44-12.288-62.805333z m-255.274666-257.493333c38.826667-4.736 79.914667-2.304 98.176 12.970666 16.213333 13.525333 25.898667 25.557333 25.898666 60.586667 0 32.042667-15.232 50.986667-25.941333 57.856-10.709333 6.869333-25.173333 15.701333-59.861333 15.701333h-38.272V312.362667z m129.237333 370.346666c-19.157333 16.64-47.530667 23.552-77.482667 23.552-33.706667 0-51.754667-3.072-51.754666-3.072v-159.445333h48.298666c30.336 0 61.354667 5.376 78.165334 19.797333 21.717333 18.645333 26.069333 38.186667 26.069333 64.213334 0.042667 25.984-9.045333 42.581333-23.296 54.954666z" p-id="3007"></path></svg>