<?xml version="1.0" standalone="no"?><!DOCTYPE svg PUBLIC "-//W3C//DTD SVG 1.1//EN" "http://www.w3.org/Graphics/SVG/1.1/DTD/svg11.dtd"><svg t="1617075431546" class="icon" viewBox="0 0 1024 1024" version="1.1" xmlns="http://www.w3.org/2000/svg" p-id="2055" xmlns:xlink="http://www.w3.org/1999/xlink" width="128" height="128"><defs><style type="text/css"></style></defs><path d="M160 144h704a48 48 0 1 0 0-96H160a48 48 0 1 0 0 96z m774 48H90L0 432a128 128 0 0 0 256 0 128 128 0 0 0 256 0 128 128 0 0 0 256 0 128 128 0 0 0 256 0l-90-240zM880 607.232v-0.032c-4.592-0.416-9.12-1.104-13.6-1.872-0.976-0.16-1.968-0.24-2.928-0.416-2.08-0.368-4.096-0.976-6.144-1.44A180.768 180.768 0 0 1 832 595.84V832H192V595.824c-8.16 3.2-16.672 5.664-25.376 7.648-2.048 0.464-4.048 1.04-6.112 1.44-0.96 0.192-1.952 0.272-2.928 0.432-4.48 0.736-8.992 1.44-13.584 1.856v0.032c-5.264 0.48-10.592 0.768-16 0.768-10.944 0-21.616-1.12-32-3.024V928a48 48 0 0 0 48 48h736a48 48 0 0 0 48-48V604.976c-10.368 1.904-21.056 3.024-32 3.024-5.392 0-10.736-0.288-16-0.768z" fill="" p-id="2056"></path></svg>