<?xml version="1.0" standalone="no"?><!DOCTYPE svg PUBLIC "-//W3C//DTD SVG 1.1//EN" "http://www.w3.org/Graphics/SVG/1.1/DTD/svg11.dtd"><svg t="1617076030054" class="icon" viewBox="0 0 1024 1024" version="1.1" xmlns="http://www.w3.org/2000/svg" p-id="3942" xmlns:xlink="http://www.w3.org/1999/xlink" width="128" height="128"><defs><style type="text/css"></style></defs><path d="M921.6 486.4v-51.2a25.5488 25.5488 0 0 0-2.7136-11.4688l-102.4-204.8A25.6 25.6 0 0 0 793.6 204.8h-614.4a25.6 25.6 0 0 0-22.8864 14.1312l-102.4 204.8A25.3952 25.3952 0 0 0 51.2 435.2v51.2c0 41.7792 20.1216 78.9504 51.2 102.3488V921.6h-25.6a25.6 25.6 0 0 0 0 51.2h819.2a25.6 25.6 0 0 0 0-51.2H870.4v-332.8512c31.0784-23.3984 51.2-60.5184 51.2-102.3488zM588.8 563.2c-42.3424 0-76.8-34.4576-76.8-76.8V460.8h153.6v25.6c0 42.3424-34.4576 76.8-76.8 76.8zM102.4 486.4V460.8h153.6v25.6c0 42.3424-34.4576 76.8-76.8 76.8S102.4 528.7424 102.4 486.4zM460.8 256v153.6H314.368l38.4-153.6H460.8z m159.232 0l38.4 153.6H512V256h108.032zM307.2 460.8h153.6v25.6c0 42.3424-34.4576 76.8-76.8 76.8S307.2 528.7424 307.2 486.4V460.8z m409.6 0h153.6v25.6c0 42.3424-34.4576 76.8-76.8 76.8S716.8 528.7424 716.8 486.4V460.8z m137.7792-51.2H711.168l-38.4-153.6h105.0112l76.8 153.6zM195.0208 256H300.032l-38.4 153.6H118.2208l76.8-153.6zM153.6 611.84a128.0512 128.0512 0 0 0 128-48.7424 127.8464 127.8464 0 0 0 204.8 0c18.4832 24.576 45.568 42.3424 76.8 48.6912v309.76H153.6v-309.76zM819.2 921.6h-204.8v-309.76a128.2048 128.2048 0 0 0 76.8-48.6912 127.8464 127.8464 0 0 0 128 48.7424v309.76z" fill="" p-id="3943"></path><path d="M716.8 742.4a25.6 25.6 0 1 1-51.2 0 25.6 25.6 0 0 1 51.2 0zM230.4 768a25.6 25.6 0 0 1-18.1248-43.6736l51.2-51.2a25.6 25.6 0 0 1 36.1984 36.1984l-51.2 51.2a25.4976 25.4976 0 0 1-18.1248 7.4752zM281.6 870.4a25.6 25.6 0 0 1-18.1248-43.6736l153.6-153.6a25.6 25.6 0 0 1 36.1984 36.1984l-153.6 153.6a25.4976 25.4976 0 0 1-18.1248 7.4752zM435.2 870.4a25.6 25.6 0 0 1-18.1248-43.6736l51.2-51.2a25.6 25.6 0 0 1 36.1984 36.1984l-51.2 51.2a25.4976 25.4976 0 0 1-18.1248 7.4752z" fill="" p-id="3944"></path></svg>