<?xml version="1.0" standalone="no"?><!DOCTYPE svg PUBLIC "-//W3C//DTD SVG 1.1//EN" "http://www.w3.org/Graphics/SVG/1.1/DTD/svg11.dtd"><svg t="1617283370503" class="icon" viewBox="0 0 1024 1024" version="1.1" xmlns="http://www.w3.org/2000/svg" p-id="3911" width="128" height="128" xmlns:xlink="http://www.w3.org/1999/xlink"><defs><style type="text/css"></style></defs><path d="M844.992 115.008H179.008c-35.328 0-64 28.672-64 64v665.984c0 35.328 28.672 64 64 64h665.984c35.328 0 64-28.672 64-64V179.008c0-35.328-28.672-64-64-64zM364.672 844.992H217.6L844.992 217.6v147.072l-480.32 480.32z m480.32-401.152v147.2l-254.016 253.952H443.84l401.152-401.152z m-187.648-264.832h147.072l-625.408 625.408V657.28l478.336-478.336zM179.008 578.112V431.04l252.032-252.032h147.136L179.008 578.112z m172.864-399.104l-172.864 172.8v-172.8h172.864z m318.272 665.984l174.848-174.848v174.848h-174.848z" p-id="3912"></path></svg>